<svg width="1280" height="701" viewBox="0 0 1280 701" fill="none" xmlns="http://www.w3.org/2000/svg">
<rect x="1" y="1" width="1278" height="698.646" rx="14" stroke="#D9D9D9" stroke-width="2"/>
<path d="M510.244 486.856H459.856C457.88 486.856 456.32 486.336 455.176 485.296C454.032 484.256 453.46 482.852 453.46 481.084C453.46 479.42 454.032 477.86 455.176 476.404L512.272 405.892C512.896 405.164 513.78 404.592 514.924 404.176C516.068 403.656 517.316 403.396 518.668 403.396C520.644 403.396 522.204 404.02 523.348 405.268C524.492 406.412 525.064 407.972 525.064 409.948V474.064H543.316C543.316 478.536 542.432 481.812 540.664 483.892C539 485.868 536.348 486.856 532.708 486.856H525.064V504.328C525.064 511.712 520.124 515.404 510.244 515.404V486.856ZM510.868 474.064V428.824L515.704 422.428L514.768 421.804L473.272 474.064H510.868ZM640.238 515.404C632.646 515.404 625.626 513.948 619.178 511.036C612.834 508.02 607.79 504.016 604.046 499.024C600.302 493.928 598.43 488.312 598.43 482.176V436.624C598.43 430.488 600.25 424.924 603.89 419.932C607.634 414.836 612.678 410.832 619.022 407.92C625.47 404.904 632.542 403.396 640.238 403.396C647.934 403.396 654.954 404.904 661.298 407.92C667.746 410.832 672.79 414.836 676.43 419.932C680.174 424.924 682.046 430.488 682.046 436.624V482.176C682.046 488.312 680.174 493.928 676.43 499.024C672.686 504.016 667.59 508.02 661.142 511.036C654.798 513.948 647.83 515.404 640.238 515.404ZM640.238 502.3C648.246 502.3 654.746 500.428 659.738 496.684C664.834 492.836 667.382 487.896 667.382 481.864V436.936C667.382 430.904 664.834 426.016 659.738 422.272C654.746 418.424 648.246 416.5 640.238 416.5C632.23 416.5 625.678 418.424 620.582 422.272C615.59 426.016 613.094 430.904 613.094 436.936V481.864C613.094 487.896 615.59 492.836 620.582 496.684C625.678 500.428 632.23 502.3 640.238 502.3ZM793.908 486.856H743.52C741.544 486.856 739.984 486.336 738.84 485.296C737.696 484.256 737.124 482.852 737.124 481.084C737.124 479.42 737.696 477.86 738.84 476.404L795.936 405.892C796.56 405.164 797.444 404.592 798.588 404.176C799.732 403.656 800.98 403.396 802.332 403.396C804.308 403.396 805.868 404.02 807.012 405.268C808.156 406.412 808.728 407.972 808.728 409.948V474.064H826.98C826.98 478.536 826.096 481.812 824.328 483.892C822.664 485.868 820.012 486.856 816.372 486.856H808.728V504.328C808.728 511.712 803.788 515.404 793.908 515.404V486.856ZM794.532 474.064V428.824L799.368 422.428L798.432 421.804L756.936 474.064H794.532Z" fill="#245054"/>
<path d="M549 283C577.18 249.797 653.231 203.312 732 283" stroke="#245054" stroke-width="10"/>
<circle cx="576.5" cy="165.5" r="15.5" fill="#245054"/>
<circle cx="704.5" cy="165.5" r="15.5" fill="#245054"/>
</svg>
